<mxfile host="app.diagrams.net" modified="2024-04-12T12:06:21.775Z" agent="Mozilla/5.0 (Windows NT 10.0; Win64; x64) AppleWebKit/537.36 (KHTML, like Gecko) Chrome/123.0.0.0 Safari/537.36 Edg/123.0.0.0" etag="kCRzXENSJ-OE6afkznjT" version="24.2.3" type="device">
  <diagram name="Страница — 1" id="JCTOw_cMsSzXaskNIPsO">
    <mxGraphModel dx="4131" dy="2893" grid="1" gridSize="10" guides="1" tooltips="1" connect="1" arrows="1" fold="1" page="1" pageScale="1" pageWidth="2500" pageHeight="2000" math="0" shadow="0">
      <root>
        <mxCell id="0" />
        <mxCell id="1" parent="0" />
        <mxCell id="JZkYV2BFQ3dBwdrkWC1B-2" value="Start" style="ellipse;whiteSpace=wrap;html=1;" parent="1" vertex="1">
          <mxGeometry x="10" y="110" width="120" height="50" as="geometry" />
        </mxCell>
        <mxCell id="JZkYV2BFQ3dBwdrkWC1B-20" style="edgeStyle=orthogonalEdgeStyle;rounded=0;orthogonalLoop=1;jettySize=auto;html=1;exitX=0.5;exitY=1;exitDx=0;exitDy=0;entryX=0;entryY=0.5;entryDx=0;entryDy=0;" parent="1" source="JZkYV2BFQ3dBwdrkWC1B-6" target="JZkYV2BFQ3dBwdrkWC1B-12" edge="1">
          <mxGeometry relative="1" as="geometry" />
        </mxCell>
        <mxCell id="JZkYV2BFQ3dBwdrkWC1B-6" value="Новый пользователь?" style="rhombus;whiteSpace=wrap;html=1;" parent="1" vertex="1">
          <mxGeometry x="170" y="85" width="110" height="100" as="geometry" />
        </mxCell>
        <mxCell id="JZkYV2BFQ3dBwdrkWC1B-8" value="Да" style="text;strokeColor=none;align=center;fillColor=none;html=1;verticalAlign=middle;whiteSpace=wrap;rounded=0;" parent="1" vertex="1">
          <mxGeometry x="150" y="85" width="60" height="30" as="geometry" />
        </mxCell>
        <mxCell id="JZkYV2BFQ3dBwdrkWC1B-9" value="Нет" style="text;strokeColor=none;align=center;fillColor=none;html=1;verticalAlign=middle;whiteSpace=wrap;rounded=0;" parent="1" vertex="1">
          <mxGeometry x="150" y="160" width="60" height="30" as="geometry" />
        </mxCell>
        <mxCell id="JZkYV2BFQ3dBwdrkWC1B-28" style="edgeStyle=orthogonalEdgeStyle;rounded=0;orthogonalLoop=1;jettySize=auto;html=1;exitX=1;exitY=0.5;exitDx=0;exitDy=0;entryX=0;entryY=0.5;entryDx=0;entryDy=0;" parent="1" source="JZkYV2BFQ3dBwdrkWC1B-11" target="JZkYV2BFQ3dBwdrkWC1B-27" edge="1">
          <mxGeometry relative="1" as="geometry">
            <Array as="points">
              <mxPoint x="430" y="60" />
              <mxPoint x="430" y="105" />
              <mxPoint x="400" y="105" />
              <mxPoint x="400" y="135" />
            </Array>
          </mxGeometry>
        </mxCell>
        <mxCell id="JZkYV2BFQ3dBwdrkWC1B-11" value="Регистрация" style="rounded=0;whiteSpace=wrap;html=1;" parent="1" vertex="1">
          <mxGeometry x="310" y="35" width="110" height="50" as="geometry" />
        </mxCell>
        <mxCell id="JZkYV2BFQ3dBwdrkWC1B-12" value="Аавторизация" style="rounded=0;whiteSpace=wrap;html=1;" parent="1" vertex="1">
          <mxGeometry x="310" y="185" width="110" height="50" as="geometry" />
        </mxCell>
        <mxCell id="JZkYV2BFQ3dBwdrkWC1B-17" value="" style="endArrow=classic;html=1;rounded=0;exitX=1;exitY=0.5;exitDx=0;exitDy=0;entryX=0;entryY=0.5;entryDx=0;entryDy=0;" parent="1" source="JZkYV2BFQ3dBwdrkWC1B-2" target="JZkYV2BFQ3dBwdrkWC1B-6" edge="1">
          <mxGeometry width="50" height="50" relative="1" as="geometry">
            <mxPoint x="390" y="300" as="sourcePoint" />
            <mxPoint x="440" y="250" as="targetPoint" />
          </mxGeometry>
        </mxCell>
        <mxCell id="JZkYV2BFQ3dBwdrkWC1B-21" value="" style="endArrow=classic;html=1;rounded=0;exitX=0.5;exitY=0;exitDx=0;exitDy=0;entryX=0;entryY=0.5;entryDx=0;entryDy=0;" parent="1" source="JZkYV2BFQ3dBwdrkWC1B-6" target="JZkYV2BFQ3dBwdrkWC1B-11" edge="1">
          <mxGeometry width="50" height="50" relative="1" as="geometry">
            <mxPoint x="390" y="300" as="sourcePoint" />
            <mxPoint x="300" y="60" as="targetPoint" />
            <Array as="points">
              <mxPoint x="225" y="60" />
            </Array>
          </mxGeometry>
        </mxCell>
        <mxCell id="JZkYV2BFQ3dBwdrkWC1B-27" value="Ваша роль в системе?" style="rhombus;whiteSpace=wrap;html=1;" parent="1" vertex="1">
          <mxGeometry x="420" y="95" width="110" height="80" as="geometry" />
        </mxCell>
        <mxCell id="r6MJN3_iS-Vz3nR1FELD-7" style="edgeStyle=orthogonalEdgeStyle;rounded=0;orthogonalLoop=1;jettySize=auto;html=1;entryX=0.5;entryY=0;entryDx=0;entryDy=0;" edge="1" parent="1" source="JZkYV2BFQ3dBwdrkWC1B-35" target="r6MJN3_iS-Vz3nR1FELD-3">
          <mxGeometry relative="1" as="geometry" />
        </mxCell>
        <mxCell id="JZkYV2BFQ3dBwdrkWC1B-35" value="Главное меню администратора&amp;nbsp;" style="rounded=0;whiteSpace=wrap;html=1;" parent="1" vertex="1">
          <mxGeometry x="2140" y="320" width="120" height="60" as="geometry" />
        </mxCell>
        <mxCell id="UZWlOfNiGWSKDZicaVTg-37" style="edgeStyle=orthogonalEdgeStyle;rounded=0;orthogonalLoop=1;jettySize=auto;html=1;entryX=0.5;entryY=0;entryDx=0;entryDy=0;" parent="1" source="JZkYV2BFQ3dBwdrkWC1B-36" target="UZWlOfNiGWSKDZicaVTg-11" edge="1">
          <mxGeometry relative="1" as="geometry" />
        </mxCell>
        <mxCell id="UZWlOfNiGWSKDZicaVTg-38" value="" style="edgeStyle=orthogonalEdgeStyle;rounded=0;orthogonalLoop=1;jettySize=auto;html=1;" parent="1" source="JZkYV2BFQ3dBwdrkWC1B-36" target="UZWlOfNiGWSKDZicaVTg-12" edge="1">
          <mxGeometry relative="1" as="geometry" />
        </mxCell>
        <mxCell id="JZkYV2BFQ3dBwdrkWC1B-36" value="Главное меню рекрутера" style="rounded=0;whiteSpace=wrap;html=1;" parent="1" vertex="1">
          <mxGeometry x="1320" y="320" width="120" height="60" as="geometry" />
        </mxCell>
        <mxCell id="ZCse95G9iP8u16o-Q77A-19" style="edgeStyle=orthogonalEdgeStyle;rounded=0;orthogonalLoop=1;jettySize=auto;html=1;entryX=0.5;entryY=0;entryDx=0;entryDy=0;" parent="1" source="JZkYV2BFQ3dBwdrkWC1B-37" target="JZkYV2BFQ3dBwdrkWC1B-57" edge="1">
          <mxGeometry relative="1" as="geometry" />
        </mxCell>
        <mxCell id="ZCse95G9iP8u16o-Q77A-20" style="edgeStyle=orthogonalEdgeStyle;rounded=0;orthogonalLoop=1;jettySize=auto;html=1;entryX=0.5;entryY=0;entryDx=0;entryDy=0;" parent="1" source="JZkYV2BFQ3dBwdrkWC1B-37" target="ZCse95G9iP8u16o-Q77A-1" edge="1">
          <mxGeometry relative="1" as="geometry" />
        </mxCell>
        <mxCell id="ZCse95G9iP8u16o-Q77A-25" style="edgeStyle=orthogonalEdgeStyle;rounded=0;orthogonalLoop=1;jettySize=auto;html=1;" parent="1" source="JZkYV2BFQ3dBwdrkWC1B-37" target="ZCse95G9iP8u16o-Q77A-2" edge="1">
          <mxGeometry relative="1" as="geometry" />
        </mxCell>
        <mxCell id="JZkYV2BFQ3dBwdrkWC1B-37" value="Главное меню соискателя" style="rounded=0;whiteSpace=wrap;html=1;" parent="1" vertex="1">
          <mxGeometry x="260" y="320" width="120" height="60" as="geometry" />
        </mxCell>
        <mxCell id="JZkYV2BFQ3dBwdrkWC1B-47" value="" style="endArrow=classic;html=1;rounded=0;exitX=0.5;exitY=0;exitDx=0;exitDy=0;entryX=0.5;entryY=0;entryDx=0;entryDy=0;" parent="1" source="JZkYV2BFQ3dBwdrkWC1B-27" target="JZkYV2BFQ3dBwdrkWC1B-35" edge="1">
          <mxGeometry width="50" height="50" relative="1" as="geometry">
            <mxPoint x="390" y="420" as="sourcePoint" />
            <mxPoint x="440" y="370" as="targetPoint" />
            <Array as="points">
              <mxPoint x="2200" y="95" />
            </Array>
          </mxGeometry>
        </mxCell>
        <mxCell id="JZkYV2BFQ3dBwdrkWC1B-53" value="Администратор" style="edgeLabel;html=1;align=center;verticalAlign=middle;resizable=0;points=[];" parent="JZkYV2BFQ3dBwdrkWC1B-47" vertex="1" connectable="0">
          <mxGeometry x="0.6985" y="2" relative="1" as="geometry">
            <mxPoint as="offset" />
          </mxGeometry>
        </mxCell>
        <mxCell id="JZkYV2BFQ3dBwdrkWC1B-48" value="" style="endArrow=classic;html=1;rounded=0;exitX=1;exitY=0.5;exitDx=0;exitDy=0;entryX=0.5;entryY=0;entryDx=0;entryDy=0;" parent="1" source="JZkYV2BFQ3dBwdrkWC1B-27" target="JZkYV2BFQ3dBwdrkWC1B-36" edge="1">
          <mxGeometry width="50" height="50" relative="1" as="geometry">
            <mxPoint x="470" y="440" as="sourcePoint" />
            <mxPoint x="440" y="370" as="targetPoint" />
            <Array as="points">
              <mxPoint x="530" y="320" />
              <mxPoint x="881" y="320" />
              <mxPoint x="1160" y="320" />
            </Array>
          </mxGeometry>
        </mxCell>
        <mxCell id="JZkYV2BFQ3dBwdrkWC1B-54" value="Рекрутер" style="edgeLabel;html=1;align=center;verticalAlign=middle;resizable=0;points=[];" parent="JZkYV2BFQ3dBwdrkWC1B-48" vertex="1" connectable="0">
          <mxGeometry x="-0.0531" y="-2" relative="1" as="geometry">
            <mxPoint x="453" y="-2" as="offset" />
          </mxGeometry>
        </mxCell>
        <mxCell id="JZkYV2BFQ3dBwdrkWC1B-49" value="" style="endArrow=classic;html=1;rounded=0;entryX=0.442;entryY=0.017;entryDx=0;entryDy=0;entryPerimeter=0;exitX=0.5;exitY=1;exitDx=0;exitDy=0;" parent="1" source="JZkYV2BFQ3dBwdrkWC1B-27" target="JZkYV2BFQ3dBwdrkWC1B-37" edge="1">
          <mxGeometry width="50" height="50" relative="1" as="geometry">
            <mxPoint x="470" y="180" as="sourcePoint" />
            <mxPoint x="440" y="370" as="targetPoint" />
            <Array as="points">
              <mxPoint x="475" y="280" />
              <mxPoint x="313" y="280" />
            </Array>
          </mxGeometry>
        </mxCell>
        <mxCell id="JZkYV2BFQ3dBwdrkWC1B-55" value="Соискатель" style="edgeLabel;html=1;align=center;verticalAlign=middle;resizable=0;points=[];" parent="JZkYV2BFQ3dBwdrkWC1B-49" vertex="1" connectable="0">
          <mxGeometry x="0.8405" y="1" relative="1" as="geometry">
            <mxPoint as="offset" />
          </mxGeometry>
        </mxCell>
        <mxCell id="JZkYV2BFQ3dBwdrkWC1B-52" value="" style="endArrow=classic;startArrow=classic;html=1;rounded=0;entryX=0.447;entryY=0.978;entryDx=0;entryDy=0;entryPerimeter=0;" parent="1" edge="1">
          <mxGeometry width="50" height="50" relative="1" as="geometry">
            <mxPoint x="360" y="183.05" as="sourcePoint" />
            <mxPoint x="359.1700000000001" y="86.94999999999997" as="targetPoint" />
          </mxGeometry>
        </mxCell>
        <mxCell id="JZkYV2BFQ3dBwdrkWC1B-56" value="" style="endArrow=classic;html=1;rounded=0;entryX=0;entryY=0.5;entryDx=0;entryDy=0;" parent="1" target="JZkYV2BFQ3dBwdrkWC1B-27" edge="1">
          <mxGeometry width="50" height="50" relative="1" as="geometry">
            <mxPoint x="420" y="210" as="sourcePoint" />
            <mxPoint x="450" y="180" as="targetPoint" />
          </mxGeometry>
        </mxCell>
        <mxCell id="ZCse95G9iP8u16o-Q77A-11" style="edgeStyle=orthogonalEdgeStyle;rounded=0;orthogonalLoop=1;jettySize=auto;html=1;entryX=0.5;entryY=0;entryDx=0;entryDy=0;" parent="1" source="JZkYV2BFQ3dBwdrkWC1B-57" target="ZCse95G9iP8u16o-Q77A-4" edge="1">
          <mxGeometry relative="1" as="geometry" />
        </mxCell>
        <mxCell id="ZCse95G9iP8u16o-Q77A-12" style="edgeStyle=orthogonalEdgeStyle;rounded=0;orthogonalLoop=1;jettySize=auto;html=1;entryX=0.5;entryY=0;entryDx=0;entryDy=0;" parent="1" source="JZkYV2BFQ3dBwdrkWC1B-57" target="ZCse95G9iP8u16o-Q77A-5" edge="1">
          <mxGeometry relative="1" as="geometry" />
        </mxCell>
        <mxCell id="JZkYV2BFQ3dBwdrkWC1B-57" value="Поиск" style="rounded=0;whiteSpace=wrap;html=1;" parent="1" vertex="1">
          <mxGeometry x="-40" y="450" width="120" height="60" as="geometry" />
        </mxCell>
        <mxCell id="ZCse95G9iP8u16o-Q77A-23" style="edgeStyle=orthogonalEdgeStyle;rounded=0;orthogonalLoop=1;jettySize=auto;html=1;entryX=0.5;entryY=0;entryDx=0;entryDy=0;" parent="1" source="ZCse95G9iP8u16o-Q77A-1" target="ZCse95G9iP8u16o-Q77A-21" edge="1">
          <mxGeometry relative="1" as="geometry" />
        </mxCell>
        <mxCell id="UZWlOfNiGWSKDZicaVTg-9" style="edgeStyle=orthogonalEdgeStyle;rounded=0;orthogonalLoop=1;jettySize=auto;html=1;entryX=0.5;entryY=0;entryDx=0;entryDy=0;" parent="1" source="ZCse95G9iP8u16o-Q77A-1" target="ZCse95G9iP8u16o-Q77A-27" edge="1">
          <mxGeometry relative="1" as="geometry" />
        </mxCell>
        <mxCell id="ZCse95G9iP8u16o-Q77A-1" value="Профиль пользователя" style="rounded=0;whiteSpace=wrap;html=1;" parent="1" vertex="1">
          <mxGeometry x="495" y="440" width="120" height="60" as="geometry" />
        </mxCell>
        <mxCell id="ZCse95G9iP8u16o-Q77A-2" value="Топ вакансий для соискателя" style="rounded=0;whiteSpace=wrap;html=1;" parent="1" vertex="1">
          <mxGeometry x="780" y="440" width="120" height="60" as="geometry" />
        </mxCell>
        <mxCell id="ZCse95G9iP8u16o-Q77A-14" style="edgeStyle=orthogonalEdgeStyle;rounded=0;orthogonalLoop=1;jettySize=auto;html=1;entryX=0.5;entryY=0;entryDx=0;entryDy=0;" parent="1" source="ZCse95G9iP8u16o-Q77A-4" target="ZCse95G9iP8u16o-Q77A-6" edge="1">
          <mxGeometry relative="1" as="geometry" />
        </mxCell>
        <mxCell id="ZCse95G9iP8u16o-Q77A-15" style="edgeStyle=orthogonalEdgeStyle;rounded=0;orthogonalLoop=1;jettySize=auto;html=1;entryX=1;entryY=0.5;entryDx=0;entryDy=0;" parent="1" source="ZCse95G9iP8u16o-Q77A-4" target="ZCse95G9iP8u16o-Q77A-10" edge="1">
          <mxGeometry relative="1" as="geometry" />
        </mxCell>
        <mxCell id="ZCse95G9iP8u16o-Q77A-16" style="edgeStyle=orthogonalEdgeStyle;rounded=0;orthogonalLoop=1;jettySize=auto;html=1;entryX=0;entryY=0.5;entryDx=0;entryDy=0;" parent="1" source="ZCse95G9iP8u16o-Q77A-4" target="ZCse95G9iP8u16o-Q77A-8" edge="1">
          <mxGeometry relative="1" as="geometry" />
        </mxCell>
        <mxCell id="ZCse95G9iP8u16o-Q77A-18" style="edgeStyle=orthogonalEdgeStyle;rounded=0;orthogonalLoop=1;jettySize=auto;html=1;entryX=0.5;entryY=0;entryDx=0;entryDy=0;" parent="1" source="ZCse95G9iP8u16o-Q77A-4" target="ZCse95G9iP8u16o-Q77A-9" edge="1">
          <mxGeometry relative="1" as="geometry" />
        </mxCell>
        <mxCell id="ZCse95G9iP8u16o-Q77A-4" value="Фильтр" style="rounded=0;whiteSpace=wrap;html=1;" parent="1" vertex="1">
          <mxGeometry x="-120" y="560" width="120" height="60" as="geometry" />
        </mxCell>
        <mxCell id="ZCse95G9iP8u16o-Q77A-5" value="Вакансия" style="rounded=0;whiteSpace=wrap;html=1;" parent="1" vertex="1">
          <mxGeometry x="70" y="560" width="120" height="60" as="geometry" />
        </mxCell>
        <mxCell id="ZCse95G9iP8u16o-Q77A-6" value="Опыт" style="rounded=0;whiteSpace=wrap;html=1;" parent="1" vertex="1">
          <mxGeometry x="-250" y="640" width="110" height="60" as="geometry" />
        </mxCell>
        <mxCell id="ZCse95G9iP8u16o-Q77A-7" value="Отрасль компании" style="rounded=0;whiteSpace=wrap;html=1;" parent="1" vertex="1">
          <mxGeometry y="640" width="120" height="60" as="geometry" />
        </mxCell>
        <mxCell id="ZCse95G9iP8u16o-Q77A-8" value="Город" style="rounded=0;whiteSpace=wrap;html=1;" parent="1" vertex="1">
          <mxGeometry x="-20" y="720" width="120" height="60" as="geometry" />
        </mxCell>
        <mxCell id="ZCse95G9iP8u16o-Q77A-9" value="Образование" style="rounded=0;whiteSpace=wrap;html=1;" parent="1" vertex="1">
          <mxGeometry x="-120" y="790" width="120" height="60" as="geometry" />
        </mxCell>
        <mxCell id="ZCse95G9iP8u16o-Q77A-10" value="График работы" style="rounded=0;whiteSpace=wrap;html=1;" parent="1" vertex="1">
          <mxGeometry x="-220" y="720" width="120" height="60" as="geometry" />
        </mxCell>
        <mxCell id="ZCse95G9iP8u16o-Q77A-29" style="edgeStyle=orthogonalEdgeStyle;rounded=0;orthogonalLoop=1;jettySize=auto;html=1;entryX=0.5;entryY=0;entryDx=0;entryDy=0;" parent="1" source="ZCse95G9iP8u16o-Q77A-21" target="ZCse95G9iP8u16o-Q77A-26" edge="1">
          <mxGeometry relative="1" as="geometry" />
        </mxCell>
        <mxCell id="ZCse95G9iP8u16o-Q77A-21" value="Личные данные" style="rounded=0;whiteSpace=wrap;html=1;" parent="1" vertex="1">
          <mxGeometry x="250" y="560" width="120" height="60" as="geometry" />
        </mxCell>
        <mxCell id="ZCse95G9iP8u16o-Q77A-35" style="edgeStyle=orthogonalEdgeStyle;rounded=0;orthogonalLoop=1;jettySize=auto;html=1;" parent="1" source="ZCse95G9iP8u16o-Q77A-22" target="ZCse95G9iP8u16o-Q77A-32" edge="1">
          <mxGeometry relative="1" as="geometry" />
        </mxCell>
        <mxCell id="ZCse95G9iP8u16o-Q77A-22" value="Резюме соискателя" style="rounded=0;whiteSpace=wrap;html=1;" parent="1" vertex="1">
          <mxGeometry x="510" y="570" width="120" height="60" as="geometry" />
        </mxCell>
        <mxCell id="ZCse95G9iP8u16o-Q77A-24" style="edgeStyle=orthogonalEdgeStyle;rounded=0;orthogonalLoop=1;jettySize=auto;html=1;entryX=0.393;entryY=0.043;entryDx=0;entryDy=0;entryPerimeter=0;" parent="1" source="ZCse95G9iP8u16o-Q77A-1" target="ZCse95G9iP8u16o-Q77A-22" edge="1">
          <mxGeometry relative="1" as="geometry" />
        </mxCell>
        <mxCell id="ZCse95G9iP8u16o-Q77A-26" value="Редактирование личных данных" style="rounded=0;whiteSpace=wrap;html=1;" parent="1" vertex="1">
          <mxGeometry x="180" y="650" width="120" height="60" as="geometry" />
        </mxCell>
        <mxCell id="ZCse95G9iP8u16o-Q77A-27" value="Отклики соискателя" style="rounded=0;whiteSpace=wrap;html=1;" parent="1" vertex="1">
          <mxGeometry x="690" y="570" width="120" height="60" as="geometry" />
        </mxCell>
        <mxCell id="ZCse95G9iP8u16o-Q77A-28" value="Удаление аккаунта соискателя" style="rounded=0;whiteSpace=wrap;html=1;" parent="1" vertex="1">
          <mxGeometry x="320" y="650" width="120" height="60" as="geometry" />
        </mxCell>
        <mxCell id="ZCse95G9iP8u16o-Q77A-30" style="edgeStyle=orthogonalEdgeStyle;rounded=0;orthogonalLoop=1;jettySize=auto;html=1;entryX=0.458;entryY=0.022;entryDx=0;entryDy=0;entryPerimeter=0;" parent="1" source="ZCse95G9iP8u16o-Q77A-21" target="ZCse95G9iP8u16o-Q77A-28" edge="1">
          <mxGeometry relative="1" as="geometry" />
        </mxCell>
        <mxCell id="UZWlOfNiGWSKDZicaVTg-3" style="edgeStyle=orthogonalEdgeStyle;rounded=0;orthogonalLoop=1;jettySize=auto;html=1;" parent="1" source="ZCse95G9iP8u16o-Q77A-32" target="ZCse95G9iP8u16o-Q77A-34" edge="1">
          <mxGeometry relative="1" as="geometry" />
        </mxCell>
        <mxCell id="UZWlOfNiGWSKDZicaVTg-4" value="да" style="edgeLabel;html=1;align=center;verticalAlign=middle;resizable=0;points=[];" parent="UZWlOfNiGWSKDZicaVTg-3" vertex="1" connectable="0">
          <mxGeometry x="-0.12" y="2" relative="1" as="geometry">
            <mxPoint as="offset" />
          </mxGeometry>
        </mxCell>
        <mxCell id="UZWlOfNiGWSKDZicaVTg-5" style="edgeStyle=orthogonalEdgeStyle;rounded=0;orthogonalLoop=1;jettySize=auto;html=1;entryX=0.5;entryY=0;entryDx=0;entryDy=0;" parent="1" source="ZCse95G9iP8u16o-Q77A-32" target="ZCse95G9iP8u16o-Q77A-33" edge="1">
          <mxGeometry relative="1" as="geometry" />
        </mxCell>
        <mxCell id="UZWlOfNiGWSKDZicaVTg-6" value="нет" style="edgeLabel;html=1;align=center;verticalAlign=middle;resizable=0;points=[];" parent="UZWlOfNiGWSKDZicaVTg-5" vertex="1" connectable="0">
          <mxGeometry x="-0.2857" y="-2" relative="1" as="geometry">
            <mxPoint as="offset" />
          </mxGeometry>
        </mxCell>
        <mxCell id="UZWlOfNiGWSKDZicaVTg-7" style="edgeStyle=orthogonalEdgeStyle;rounded=0;orthogonalLoop=1;jettySize=auto;html=1;entryX=0.5;entryY=0;entryDx=0;entryDy=0;" parent="1" source="ZCse95G9iP8u16o-Q77A-32" target="UZWlOfNiGWSKDZicaVTg-1" edge="1">
          <mxGeometry relative="1" as="geometry" />
        </mxCell>
        <mxCell id="UZWlOfNiGWSKDZicaVTg-8" value="да" style="edgeLabel;html=1;align=center;verticalAlign=middle;resizable=0;points=[];" parent="UZWlOfNiGWSKDZicaVTg-7" vertex="1" connectable="0">
          <mxGeometry x="0.5733" y="2" relative="1" as="geometry">
            <mxPoint y="3" as="offset" />
          </mxGeometry>
        </mxCell>
        <mxCell id="ZCse95G9iP8u16o-Q77A-32" value="Есть резюме?" style="rhombus;whiteSpace=wrap;html=1;" parent="1" vertex="1">
          <mxGeometry x="525" y="710" width="90" height="80" as="geometry" />
        </mxCell>
        <mxCell id="ZCse95G9iP8u16o-Q77A-33" value="создание резюме&amp;nbsp;" style="rounded=0;whiteSpace=wrap;html=1;" parent="1" vertex="1">
          <mxGeometry x="510" y="860" width="120" height="60" as="geometry" />
        </mxCell>
        <mxCell id="ZCse95G9iP8u16o-Q77A-34" value="Редактирование резюме" style="rounded=0;whiteSpace=wrap;html=1;" parent="1" vertex="1">
          <mxGeometry x="350" y="860" width="120" height="60" as="geometry" />
        </mxCell>
        <mxCell id="UZWlOfNiGWSKDZicaVTg-1" value="Удаление резюме" style="rounded=0;whiteSpace=wrap;html=1;" parent="1" vertex="1">
          <mxGeometry x="670" y="860" width="120" height="60" as="geometry" />
        </mxCell>
        <mxCell id="UZWlOfNiGWSKDZicaVTg-28" style="edgeStyle=orthogonalEdgeStyle;rounded=0;orthogonalLoop=1;jettySize=auto;html=1;entryX=1;entryY=0.5;entryDx=0;entryDy=0;" parent="1" source="UZWlOfNiGWSKDZicaVTg-11" target="UZWlOfNiGWSKDZicaVTg-17" edge="1">
          <mxGeometry relative="1" as="geometry" />
        </mxCell>
        <mxCell id="UZWlOfNiGWSKDZicaVTg-29" style="edgeStyle=orthogonalEdgeStyle;rounded=0;orthogonalLoop=1;jettySize=auto;html=1;entryX=0;entryY=0.5;entryDx=0;entryDy=0;" parent="1" source="UZWlOfNiGWSKDZicaVTg-11" target="UZWlOfNiGWSKDZicaVTg-20" edge="1">
          <mxGeometry relative="1" as="geometry" />
        </mxCell>
        <mxCell id="UZWlOfNiGWSKDZicaVTg-32" style="edgeStyle=orthogonalEdgeStyle;rounded=0;orthogonalLoop=1;jettySize=auto;html=1;entryX=1;entryY=0.75;entryDx=0;entryDy=0;" parent="1" source="UZWlOfNiGWSKDZicaVTg-11" target="UZWlOfNiGWSKDZicaVTg-18" edge="1">
          <mxGeometry relative="1" as="geometry" />
        </mxCell>
        <mxCell id="UZWlOfNiGWSKDZicaVTg-33" style="edgeStyle=orthogonalEdgeStyle;rounded=0;orthogonalLoop=1;jettySize=auto;html=1;entryX=0;entryY=0.75;entryDx=0;entryDy=0;" parent="1" source="UZWlOfNiGWSKDZicaVTg-11" target="UZWlOfNiGWSKDZicaVTg-19" edge="1">
          <mxGeometry relative="1" as="geometry">
            <Array as="points">
              <mxPoint x="1020" y="825" />
            </Array>
          </mxGeometry>
        </mxCell>
        <mxCell id="UZWlOfNiGWSKDZicaVTg-11" value="Поиск" style="rounded=0;whiteSpace=wrap;html=1;" parent="1" vertex="1">
          <mxGeometry x="960" y="440" width="120" height="60" as="geometry" />
        </mxCell>
        <mxCell id="UZWlOfNiGWSKDZicaVTg-39" style="edgeStyle=orthogonalEdgeStyle;rounded=0;orthogonalLoop=1;jettySize=auto;html=1;entryX=0.5;entryY=0;entryDx=0;entryDy=0;" parent="1" source="UZWlOfNiGWSKDZicaVTg-12" target="UZWlOfNiGWSKDZicaVTg-34" edge="1">
          <mxGeometry relative="1" as="geometry" />
        </mxCell>
        <mxCell id="UZWlOfNiGWSKDZicaVTg-40" style="edgeStyle=orthogonalEdgeStyle;rounded=0;orthogonalLoop=1;jettySize=auto;html=1;entryX=0.5;entryY=0;entryDx=0;entryDy=0;" parent="1" source="UZWlOfNiGWSKDZicaVTg-12" target="UZWlOfNiGWSKDZicaVTg-35" edge="1">
          <mxGeometry relative="1" as="geometry" />
        </mxCell>
        <mxCell id="UZWlOfNiGWSKDZicaVTg-41" style="edgeStyle=orthogonalEdgeStyle;rounded=0;orthogonalLoop=1;jettySize=auto;html=1;" parent="1" source="UZWlOfNiGWSKDZicaVTg-12" target="UZWlOfNiGWSKDZicaVTg-36" edge="1">
          <mxGeometry relative="1" as="geometry" />
        </mxCell>
        <mxCell id="r6MJN3_iS-Vz3nR1FELD-1" style="edgeStyle=orthogonalEdgeStyle;rounded=0;orthogonalLoop=1;jettySize=auto;html=1;entryX=0.5;entryY=0;entryDx=0;entryDy=0;" edge="1" parent="1" source="UZWlOfNiGWSKDZicaVTg-12" target="UZWlOfNiGWSKDZicaVTg-13">
          <mxGeometry relative="1" as="geometry" />
        </mxCell>
        <mxCell id="UZWlOfNiGWSKDZicaVTg-12" value="Профиль рекрутера" style="rounded=0;whiteSpace=wrap;html=1;" parent="1" vertex="1">
          <mxGeometry x="1535" y="430" width="120" height="60" as="geometry" />
        </mxCell>
        <mxCell id="UZWlOfNiGWSKDZicaVTg-13" value="Топ кандидатов для рекрутера" style="rounded=0;whiteSpace=wrap;html=1;" parent="1" vertex="1">
          <mxGeometry x="1880" y="530" width="120" height="60" as="geometry" />
        </mxCell>
        <mxCell id="UZWlOfNiGWSKDZicaVTg-15" value="Фильтр" style="rounded=0;whiteSpace=wrap;html=1;" parent="1" vertex="1">
          <mxGeometry x="860" y="570" width="120" height="60" as="geometry" />
        </mxCell>
        <mxCell id="UZWlOfNiGWSKDZicaVTg-16" value="Кандидат" style="rounded=0;whiteSpace=wrap;html=1;" parent="1" vertex="1">
          <mxGeometry x="1080" y="570" width="120" height="60" as="geometry" />
        </mxCell>
        <mxCell id="UZWlOfNiGWSKDZicaVTg-17" value="Опыт" style="rounded=0;whiteSpace=wrap;html=1;" parent="1" vertex="1">
          <mxGeometry x="880" y="670" width="110" height="60" as="geometry" />
        </mxCell>
        <mxCell id="UZWlOfNiGWSKDZicaVTg-18" value="График работы" style="rounded=0;whiteSpace=wrap;html=1;" parent="1" vertex="1">
          <mxGeometry x="860" y="780" width="120" height="60" as="geometry" />
        </mxCell>
        <mxCell id="UZWlOfNiGWSKDZicaVTg-19" value="Образование" style="rounded=0;whiteSpace=wrap;html=1;" parent="1" vertex="1">
          <mxGeometry x="1080" y="780" width="120" height="60" as="geometry" />
        </mxCell>
        <mxCell id="UZWlOfNiGWSKDZicaVTg-20" value="Город" style="rounded=0;whiteSpace=wrap;html=1;" parent="1" vertex="1">
          <mxGeometry x="1080" y="670" width="120" height="60" as="geometry" />
        </mxCell>
        <mxCell id="UZWlOfNiGWSKDZicaVTg-24" style="edgeStyle=orthogonalEdgeStyle;rounded=0;orthogonalLoop=1;jettySize=auto;html=1;" parent="1" source="JZkYV2BFQ3dBwdrkWC1B-6" edge="1">
          <mxGeometry relative="1" as="geometry">
            <Array as="points">
              <mxPoint x="225" y="10" />
              <mxPoint x="1878" y="10" />
            </Array>
            <mxPoint x="2180" y="10" as="targetPoint" />
          </mxGeometry>
        </mxCell>
        <mxCell id="UZWlOfNiGWSKDZicaVTg-25" value="Гость" style="edgeLabel;html=1;align=center;verticalAlign=middle;resizable=0;points=[];" parent="UZWlOfNiGWSKDZicaVTg-24" vertex="1" connectable="0">
          <mxGeometry x="0.8088" y="2" relative="1" as="geometry">
            <mxPoint as="offset" />
          </mxGeometry>
        </mxCell>
        <mxCell id="UZWlOfNiGWSKDZicaVTg-26" style="edgeStyle=orthogonalEdgeStyle;rounded=0;orthogonalLoop=1;jettySize=auto;html=1;entryX=0.532;entryY=-0.09;entryDx=0;entryDy=0;entryPerimeter=0;" parent="1" source="UZWlOfNiGWSKDZicaVTg-11" target="UZWlOfNiGWSKDZicaVTg-15" edge="1">
          <mxGeometry relative="1" as="geometry" />
        </mxCell>
        <mxCell id="UZWlOfNiGWSKDZicaVTg-27" style="edgeStyle=orthogonalEdgeStyle;rounded=0;orthogonalLoop=1;jettySize=auto;html=1;entryX=0.452;entryY=0.037;entryDx=0;entryDy=0;entryPerimeter=0;" parent="1" source="UZWlOfNiGWSKDZicaVTg-11" target="UZWlOfNiGWSKDZicaVTg-16" edge="1">
          <mxGeometry relative="1" as="geometry" />
        </mxCell>
        <mxCell id="UZWlOfNiGWSKDZicaVTg-44" style="edgeStyle=orthogonalEdgeStyle;rounded=0;orthogonalLoop=1;jettySize=auto;html=1;entryX=0.5;entryY=0;entryDx=0;entryDy=0;" parent="1" source="UZWlOfNiGWSKDZicaVTg-34" target="UZWlOfNiGWSKDZicaVTg-42" edge="1">
          <mxGeometry relative="1" as="geometry" />
        </mxCell>
        <mxCell id="UZWlOfNiGWSKDZicaVTg-45" style="edgeStyle=orthogonalEdgeStyle;rounded=0;orthogonalLoop=1;jettySize=auto;html=1;entryX=0.5;entryY=0;entryDx=0;entryDy=0;" parent="1" source="UZWlOfNiGWSKDZicaVTg-34" target="UZWlOfNiGWSKDZicaVTg-43" edge="1">
          <mxGeometry relative="1" as="geometry" />
        </mxCell>
        <mxCell id="UZWlOfNiGWSKDZicaVTg-34" value="Данные" style="rounded=0;whiteSpace=wrap;html=1;" parent="1" vertex="1">
          <mxGeometry x="1300" y="530" width="120" height="60" as="geometry" />
        </mxCell>
        <mxCell id="UZWlOfNiGWSKDZicaVTg-48" style="edgeStyle=orthogonalEdgeStyle;rounded=0;orthogonalLoop=1;jettySize=auto;html=1;entryX=0.5;entryY=0;entryDx=0;entryDy=0;" parent="1" source="UZWlOfNiGWSKDZicaVTg-35" target="UZWlOfNiGWSKDZicaVTg-46" edge="1">
          <mxGeometry relative="1" as="geometry" />
        </mxCell>
        <mxCell id="UZWlOfNiGWSKDZicaVTg-35" value="Вакансии рекрутера" style="rounded=0;whiteSpace=wrap;html=1;" parent="1" vertex="1">
          <mxGeometry x="1535" y="530" width="120" height="60" as="geometry" />
        </mxCell>
        <mxCell id="UZWlOfNiGWSKDZicaVTg-36" value="Запросы соискателей" style="rounded=0;whiteSpace=wrap;html=1;" parent="1" vertex="1">
          <mxGeometry x="1710" y="530" width="120" height="60" as="geometry" />
        </mxCell>
        <mxCell id="UZWlOfNiGWSKDZicaVTg-42" value="Редактирование данных" style="rounded=0;whiteSpace=wrap;html=1;" parent="1" vertex="1">
          <mxGeometry x="1230" y="640" width="120" height="60" as="geometry" />
        </mxCell>
        <mxCell id="UZWlOfNiGWSKDZicaVTg-43" value="Удаление аккаунта рекрутера" style="rounded=0;whiteSpace=wrap;html=1;" parent="1" vertex="1">
          <mxGeometry x="1370" y="640" width="120" height="60" as="geometry" />
        </mxCell>
        <mxCell id="UZWlOfNiGWSKDZicaVTg-52" style="edgeStyle=orthogonalEdgeStyle;rounded=0;orthogonalLoop=1;jettySize=auto;html=1;entryX=0.5;entryY=0;entryDx=0;entryDy=0;" parent="1" source="UZWlOfNiGWSKDZicaVTg-46" target="UZWlOfNiGWSKDZicaVTg-49" edge="1">
          <mxGeometry relative="1" as="geometry" />
        </mxCell>
        <mxCell id="UZWlOfNiGWSKDZicaVTg-53" value="да" style="edgeLabel;html=1;align=center;verticalAlign=middle;resizable=0;points=[];" parent="UZWlOfNiGWSKDZicaVTg-52" vertex="1" connectable="0">
          <mxGeometry x="-0.348" y="-2" relative="1" as="geometry">
            <mxPoint as="offset" />
          </mxGeometry>
        </mxCell>
        <mxCell id="UZWlOfNiGWSKDZicaVTg-55" style="edgeStyle=orthogonalEdgeStyle;rounded=0;orthogonalLoop=1;jettySize=auto;html=1;" parent="1" source="UZWlOfNiGWSKDZicaVTg-46" target="UZWlOfNiGWSKDZicaVTg-50" edge="1">
          <mxGeometry relative="1" as="geometry" />
        </mxCell>
        <mxCell id="UZWlOfNiGWSKDZicaVTg-56" value="нет" style="edgeLabel;html=1;align=center;verticalAlign=middle;resizable=0;points=[];" parent="UZWlOfNiGWSKDZicaVTg-55" vertex="1" connectable="0">
          <mxGeometry x="-0.403" y="-2" relative="1" as="geometry">
            <mxPoint as="offset" />
          </mxGeometry>
        </mxCell>
        <mxCell id="UZWlOfNiGWSKDZicaVTg-57" style="edgeStyle=orthogonalEdgeStyle;rounded=0;orthogonalLoop=1;jettySize=auto;html=1;" parent="1" source="UZWlOfNiGWSKDZicaVTg-46" target="UZWlOfNiGWSKDZicaVTg-51" edge="1">
          <mxGeometry relative="1" as="geometry" />
        </mxCell>
        <mxCell id="UZWlOfNiGWSKDZicaVTg-58" value="да" style="edgeLabel;html=1;align=center;verticalAlign=middle;resizable=0;points=[];" parent="UZWlOfNiGWSKDZicaVTg-57" vertex="1" connectable="0">
          <mxGeometry x="-0.582" y="-1" relative="1" as="geometry">
            <mxPoint as="offset" />
          </mxGeometry>
        </mxCell>
        <mxCell id="UZWlOfNiGWSKDZicaVTg-46" value="Есть резюме?" style="rhombus;whiteSpace=wrap;html=1;" parent="1" vertex="1">
          <mxGeometry x="1550" y="680" width="90" height="80" as="geometry" />
        </mxCell>
        <mxCell id="UZWlOfNiGWSKDZicaVTg-49" value="Редактирование резюме" style="rounded=0;whiteSpace=wrap;html=1;" parent="1" vertex="1">
          <mxGeometry x="1380" y="820" width="120" height="60" as="geometry" />
        </mxCell>
        <mxCell id="UZWlOfNiGWSKDZicaVTg-50" value="создание резюме&amp;nbsp;" style="rounded=0;whiteSpace=wrap;html=1;" parent="1" vertex="1">
          <mxGeometry x="1535" y="820" width="120" height="60" as="geometry" />
        </mxCell>
        <mxCell id="UZWlOfNiGWSKDZicaVTg-51" value="Удаление резюме" style="rounded=0;whiteSpace=wrap;html=1;" parent="1" vertex="1">
          <mxGeometry x="1690" y="820" width="120" height="60" as="geometry" />
        </mxCell>
        <mxCell id="r6MJN3_iS-Vz3nR1FELD-8" style="edgeStyle=orthogonalEdgeStyle;rounded=0;orthogonalLoop=1;jettySize=auto;html=1;" edge="1" parent="1" source="r6MJN3_iS-Vz3nR1FELD-3" target="r6MJN3_iS-Vz3nR1FELD-4">
          <mxGeometry relative="1" as="geometry" />
        </mxCell>
        <mxCell id="r6MJN3_iS-Vz3nR1FELD-50" style="edgeStyle=orthogonalEdgeStyle;rounded=0;orthogonalLoop=1;jettySize=auto;html=1;" edge="1" parent="1" source="r6MJN3_iS-Vz3nR1FELD-3" target="r6MJN3_iS-Vz3nR1FELD-5">
          <mxGeometry relative="1" as="geometry">
            <Array as="points">
              <mxPoint x="2370" y="450" />
            </Array>
          </mxGeometry>
        </mxCell>
        <mxCell id="r6MJN3_iS-Vz3nR1FELD-3" value="Поиск" style="rounded=0;whiteSpace=wrap;html=1;" vertex="1" parent="1">
          <mxGeometry x="2150" y="420" width="120" height="60" as="geometry" />
        </mxCell>
        <mxCell id="r6MJN3_iS-Vz3nR1FELD-15" style="edgeStyle=orthogonalEdgeStyle;rounded=0;orthogonalLoop=1;jettySize=auto;html=1;entryX=0.5;entryY=0;entryDx=0;entryDy=0;" edge="1" parent="1" source="r6MJN3_iS-Vz3nR1FELD-4" target="r6MJN3_iS-Vz3nR1FELD-11">
          <mxGeometry relative="1" as="geometry" />
        </mxCell>
        <mxCell id="r6MJN3_iS-Vz3nR1FELD-16" style="edgeStyle=orthogonalEdgeStyle;rounded=0;orthogonalLoop=1;jettySize=auto;html=1;entryX=0.5;entryY=0;entryDx=0;entryDy=0;" edge="1" parent="1" source="r6MJN3_iS-Vz3nR1FELD-4" target="r6MJN3_iS-Vz3nR1FELD-12">
          <mxGeometry relative="1" as="geometry" />
        </mxCell>
        <mxCell id="r6MJN3_iS-Vz3nR1FELD-4" value="Рекрутеры" style="rounded=0;whiteSpace=wrap;html=1;" vertex="1" parent="1">
          <mxGeometry x="2020" y="560" width="120" height="60" as="geometry" />
        </mxCell>
        <mxCell id="r6MJN3_iS-Vz3nR1FELD-22" style="edgeStyle=orthogonalEdgeStyle;rounded=0;orthogonalLoop=1;jettySize=auto;html=1;" edge="1" parent="1" source="r6MJN3_iS-Vz3nR1FELD-5" target="r6MJN3_iS-Vz3nR1FELD-20">
          <mxGeometry relative="1" as="geometry" />
        </mxCell>
        <mxCell id="r6MJN3_iS-Vz3nR1FELD-23" style="edgeStyle=orthogonalEdgeStyle;rounded=0;orthogonalLoop=1;jettySize=auto;html=1;entryX=0.5;entryY=0;entryDx=0;entryDy=0;" edge="1" parent="1" source="r6MJN3_iS-Vz3nR1FELD-5" target="r6MJN3_iS-Vz3nR1FELD-21">
          <mxGeometry relative="1" as="geometry" />
        </mxCell>
        <mxCell id="r6MJN3_iS-Vz3nR1FELD-5" value="Соискатели" style="rounded=0;whiteSpace=wrap;html=1;" vertex="1" parent="1">
          <mxGeometry x="2310" y="560" width="120" height="60" as="geometry" />
        </mxCell>
        <mxCell id="r6MJN3_iS-Vz3nR1FELD-11" value="Просмотр данных рекрутера" style="rounded=0;whiteSpace=wrap;html=1;" vertex="1" parent="1">
          <mxGeometry x="1920" y="690" width="120" height="60" as="geometry" />
        </mxCell>
        <mxCell id="r6MJN3_iS-Vz3nR1FELD-12" value="Блокировка рекрутера" style="rounded=0;whiteSpace=wrap;html=1;" vertex="1" parent="1">
          <mxGeometry x="2110" y="690" width="120" height="60" as="geometry" />
        </mxCell>
        <mxCell id="r6MJN3_iS-Vz3nR1FELD-19" value="" style="endArrow=classic;html=1;rounded=0;exitX=1;exitY=0.5;exitDx=0;exitDy=0;entryX=0;entryY=0.5;entryDx=0;entryDy=0;" edge="1" parent="1" source="r6MJN3_iS-Vz3nR1FELD-11" target="r6MJN3_iS-Vz3nR1FELD-12">
          <mxGeometry width="50" height="50" relative="1" as="geometry">
            <mxPoint x="1970" y="780" as="sourcePoint" />
            <mxPoint x="2020" y="730" as="targetPoint" />
          </mxGeometry>
        </mxCell>
        <mxCell id="r6MJN3_iS-Vz3nR1FELD-20" value="Просмотр данных соискателя" style="rounded=0;whiteSpace=wrap;html=1;" vertex="1" parent="1">
          <mxGeometry x="2240" y="690" width="120" height="60" as="geometry" />
        </mxCell>
        <mxCell id="r6MJN3_iS-Vz3nR1FELD-21" value="Блокировка соискателя" style="rounded=0;whiteSpace=wrap;html=1;" vertex="1" parent="1">
          <mxGeometry x="2430" y="690" width="120" height="60" as="geometry" />
        </mxCell>
        <mxCell id="r6MJN3_iS-Vz3nR1FELD-24" value="" style="endArrow=classic;html=1;rounded=0;exitX=0;exitY=0.5;exitDx=0;exitDy=0;entryX=1;entryY=0.5;entryDx=0;entryDy=0;" edge="1" parent="1" source="r6MJN3_iS-Vz3nR1FELD-21" target="r6MJN3_iS-Vz3nR1FELD-20">
          <mxGeometry width="50" height="50" relative="1" as="geometry">
            <mxPoint x="2020" y="780" as="sourcePoint" />
            <mxPoint x="2020" y="730" as="targetPoint" />
          </mxGeometry>
        </mxCell>
        <mxCell id="r6MJN3_iS-Vz3nR1FELD-47" style="edgeStyle=orthogonalEdgeStyle;rounded=0;orthogonalLoop=1;jettySize=auto;html=1;entryX=0;entryY=0.5;entryDx=0;entryDy=0;" edge="1" parent="1" source="r6MJN3_iS-Vz3nR1FELD-25" target="r6MJN3_iS-Vz3nR1FELD-28">
          <mxGeometry relative="1" as="geometry" />
        </mxCell>
        <mxCell id="r6MJN3_iS-Vz3nR1FELD-25" value="Главное меню гостя" style="rounded=0;whiteSpace=wrap;html=1;" vertex="1" parent="1">
          <mxGeometry x="2180" y="-20" width="120" height="60" as="geometry" />
        </mxCell>
        <mxCell id="r6MJN3_iS-Vz3nR1FELD-27" style="edgeStyle=orthogonalEdgeStyle;rounded=0;orthogonalLoop=1;jettySize=auto;html=1;entryX=0.5;entryY=0;entryDx=0;entryDy=0;" edge="1" parent="1" source="r6MJN3_iS-Vz3nR1FELD-28" target="r6MJN3_iS-Vz3nR1FELD-34">
          <mxGeometry relative="1" as="geometry" />
        </mxCell>
        <mxCell id="r6MJN3_iS-Vz3nR1FELD-40" style="edgeStyle=orthogonalEdgeStyle;rounded=0;orthogonalLoop=1;jettySize=auto;html=1;" edge="1" parent="1" source="r6MJN3_iS-Vz3nR1FELD-28">
          <mxGeometry relative="1" as="geometry">
            <mxPoint x="2589.999999999999" y="-30" as="targetPoint" />
          </mxGeometry>
        </mxCell>
        <mxCell id="r6MJN3_iS-Vz3nR1FELD-28" value="Поиск" style="rounded=0;whiteSpace=wrap;html=1;" vertex="1" parent="1">
          <mxGeometry x="2350" y="-20" width="120" height="60" as="geometry" />
        </mxCell>
        <mxCell id="r6MJN3_iS-Vz3nR1FELD-42" style="edgeStyle=orthogonalEdgeStyle;rounded=0;orthogonalLoop=1;jettySize=auto;html=1;entryX=0;entryY=0.5;entryDx=0;entryDy=0;" edge="1" parent="1" source="r6MJN3_iS-Vz3nR1FELD-33" target="r6MJN3_iS-Vz3nR1FELD-39">
          <mxGeometry relative="1" as="geometry" />
        </mxCell>
        <mxCell id="r6MJN3_iS-Vz3nR1FELD-43" style="edgeStyle=orthogonalEdgeStyle;rounded=0;orthogonalLoop=1;jettySize=auto;html=1;entryX=0;entryY=0.5;entryDx=0;entryDy=0;" edge="1" parent="1" source="r6MJN3_iS-Vz3nR1FELD-33" target="r6MJN3_iS-Vz3nR1FELD-35">
          <mxGeometry relative="1" as="geometry" />
        </mxCell>
        <mxCell id="r6MJN3_iS-Vz3nR1FELD-44" style="edgeStyle=orthogonalEdgeStyle;rounded=0;orthogonalLoop=1;jettySize=auto;html=1;" edge="1" parent="1" source="r6MJN3_iS-Vz3nR1FELD-33" target="r6MJN3_iS-Vz3nR1FELD-38">
          <mxGeometry relative="1" as="geometry" />
        </mxCell>
        <mxCell id="r6MJN3_iS-Vz3nR1FELD-45" style="edgeStyle=orthogonalEdgeStyle;rounded=0;orthogonalLoop=1;jettySize=auto;html=1;entryX=0.5;entryY=0;entryDx=0;entryDy=0;" edge="1" parent="1" source="r6MJN3_iS-Vz3nR1FELD-33" target="r6MJN3_iS-Vz3nR1FELD-37">
          <mxGeometry relative="1" as="geometry" />
        </mxCell>
        <mxCell id="r6MJN3_iS-Vz3nR1FELD-46" style="edgeStyle=orthogonalEdgeStyle;rounded=0;orthogonalLoop=1;jettySize=auto;html=1;entryX=0;entryY=0.5;entryDx=0;entryDy=0;" edge="1" parent="1" source="r6MJN3_iS-Vz3nR1FELD-33" target="r6MJN3_iS-Vz3nR1FELD-36">
          <mxGeometry relative="1" as="geometry" />
        </mxCell>
        <mxCell id="r6MJN3_iS-Vz3nR1FELD-33" value="Фильтр" style="rounded=0;whiteSpace=wrap;html=1;" vertex="1" parent="1">
          <mxGeometry x="2540" y="-90" width="120" height="60" as="geometry" />
        </mxCell>
        <mxCell id="r6MJN3_iS-Vz3nR1FELD-34" value="Вакансия" style="rounded=0;whiteSpace=wrap;html=1;" vertex="1" parent="1">
          <mxGeometry x="2530" y="115" width="120" height="60" as="geometry" />
        </mxCell>
        <mxCell id="r6MJN3_iS-Vz3nR1FELD-35" value="Опыт" style="rounded=0;whiteSpace=wrap;html=1;" vertex="1" parent="1">
          <mxGeometry x="2700" y="-210" width="110" height="60" as="geometry" />
        </mxCell>
        <mxCell id="r6MJN3_iS-Vz3nR1FELD-36" value="Отрасль компании" style="rounded=0;whiteSpace=wrap;html=1;" vertex="1" parent="1">
          <mxGeometry x="2980" y="-90" width="120" height="60" as="geometry" />
        </mxCell>
        <mxCell id="r6MJN3_iS-Vz3nR1FELD-37" value="Город" style="rounded=0;whiteSpace=wrap;html=1;" vertex="1" parent="1">
          <mxGeometry x="2840" y="-30" width="120" height="60" as="geometry" />
        </mxCell>
        <mxCell id="r6MJN3_iS-Vz3nR1FELD-38" value="Образование" style="rounded=0;whiteSpace=wrap;html=1;" vertex="1" parent="1">
          <mxGeometry x="2840" y="-170" width="120" height="60" as="geometry" />
        </mxCell>
        <mxCell id="r6MJN3_iS-Vz3nR1FELD-39" value="График работы" style="rounded=0;whiteSpace=wrap;html=1;" vertex="1" parent="1">
          <mxGeometry x="2705" y="20" width="120" height="60" as="geometry" />
        </mxCell>
        <mxCell id="r6MJN3_iS-Vz3nR1FELD-51" value="Топ вакансии" style="rounded=0;whiteSpace=wrap;html=1;" vertex="1" parent="1">
          <mxGeometry x="2350" y="-220" width="120" height="60" as="geometry" />
        </mxCell>
        <mxCell id="r6MJN3_iS-Vz3nR1FELD-54" value="" style="endArrow=classic;html=1;rounded=0;exitX=0.447;exitY=-0.071;exitDx=0;exitDy=0;exitPerimeter=0;entryX=0;entryY=0.5;entryDx=0;entryDy=0;" edge="1" parent="1" source="r6MJN3_iS-Vz3nR1FELD-25" target="r6MJN3_iS-Vz3nR1FELD-51">
          <mxGeometry width="50" height="50" relative="1" as="geometry">
            <mxPoint x="2170" y="60" as="sourcePoint" />
            <mxPoint x="2220" y="10" as="targetPoint" />
            <Array as="points">
              <mxPoint x="2234" y="-190" />
            </Array>
          </mxGeometry>
        </mxCell>
      </root>
    </mxGraphModel>
  </diagram>
</mxfile>
